<svg width="25" height="24" viewBox="0 0 25 24" fill="none" xmlns="http://www.w3.org/2000/svg">
<path d="M12.5 1C6.428 1 1.5 5.928 1.5 12C1.5 18.072 6.428 23 12.5 23C18.572 23 23.5 18.072 23.5 12C23.5 5.928 18.572 1 12.5 1ZM12.5 20.525C7.803 20.525 3.975 16.697 3.975 12C3.975 10.504 4.371 9.041 5.108 7.754C5.21637 7.56483 5.39522 7.42624 5.60546 7.36853C5.8157 7.31082 6.04023 7.33867 6.23 7.446L12.907 11.285C13.303 11.516 13.435 12.011 13.215 12.407C12.984 12.803 12.489 12.935 12.093 12.715L6.164 9.316C5.812 10.163 5.625 11.076 5.625 12C5.625 15.795 8.705 18.875 12.5 18.875C16.295 18.875 19.375 15.795 19.375 12C19.3742 10.7236 19.0181 9.47255 18.3467 8.38697C17.6753 7.30139 16.7151 6.42408 15.5734 5.85324C14.4317 5.28241 13.1537 5.04056 11.8824 5.15479C10.6111 5.26901 9.39663 5.73479 8.375 6.5C8.19996 6.63128 7.97993 6.68765 7.76333 6.65671C7.54672 6.62577 7.35128 6.51004 7.22 6.335C7.08872 6.15996 7.03235 5.93993 7.06329 5.72333C7.09424 5.50672 7.20996 5.31128 7.385 5.18C8.85933 4.07076 10.655 3.47221 12.5 3.475C17.197 3.475 21.025 7.303 21.025 12C21.025 16.697 17.197 20.525 12.5 20.525Z" fill="white"/>
</svg>
