<svg width="25" height="24" viewBox="0 0 25 24" fill="none" xmlns="http://www.w3.org/2000/svg">
<path fill-rule="evenodd" clip-rule="evenodd" d="M5.5 0.75C6.19036 0.75 6.75 1.30964 6.75 2V3.75H14.6C16.5476 3.75 18.2634 3.97065 19.3964 5.10362C20.5294 6.23658 20.75 7.95245 20.75 9.9V17.75H22.5C23.1904 17.75 23.75 18.3096 23.75 19C23.75 19.6904 23.1904 20.25 22.5 20.25H20.75V22C20.75 22.6904 20.1904 23.25 19.5 23.25C18.8096 23.25 18.25 22.6904 18.25 22V20.25H10.4C8.45245 20.25 6.73658 20.0294 5.60362 18.8964C4.47065 17.7634 4.25 16.0476 4.25 14.1V6.25H2.5C1.80964 6.25 1.25 5.69036 1.25 5C1.25 4.30964 1.80964 3.75 2.5 3.75H4.25V2C4.25 1.30964 4.80964 0.75 5.5 0.75ZM6.75 6.25V14.1C6.75 16.0525 7.02935 16.7866 7.37138 17.1286C7.71342 17.4706 8.44755 17.75 10.4 17.75H18.25V9.9C18.25 7.94755 17.9706 7.21342 17.6286 6.87138C17.2866 6.52935 16.5525 6.25 14.6 6.25H6.75Z" fill="white"/>
</svg>
