<svg width="25" height="24" viewBox="0 0 25 24" fill="none" xmlns="http://www.w3.org/2000/svg">
<path d="M17.7898 4.14004L17.7198 7.93004C17.7098 8.45004 18.0398 9.14004 18.4598 9.45004L20.9398 11.33C22.5298 12.53 22.2698 14 20.3698 14.6L17.1398 15.61C16.5998 15.78 16.0298 16.37 15.8898 16.92L15.1198 19.86C14.5098 22.18 12.9898 22.41 11.7298 20.37L9.96978 17.52C9.64978 17 8.88978 16.61 8.28978 16.64L4.94978 16.81C2.55978 16.93 1.87978 15.55 3.43978 13.73L5.41978 11.43C5.78978 11 5.95978 10.2 5.78978 9.66004L4.76978 6.42004C4.17978 4.52004 5.23978 3.47004 7.12978 4.09004L10.0798 5.06004C10.5798 5.22004 11.3298 5.11004 11.7498 4.80004L14.8298 2.58004C16.4998 1.39004 17.8298 2.09004 17.7898 4.14004Z" fill="white"/>
<path d="M21.9398 20.4699L18.9098 17.4399C18.7687 17.3004 18.5783 17.2222 18.3798 17.2222C18.1814 17.2222 17.991 17.3004 17.8498 17.4399C17.5598 17.7299 17.5598 18.2099 17.8498 18.4999L20.8798 21.5299C21.0298 21.6799 21.2198 21.7499 21.4098 21.7499C21.5998 21.7499 21.7898 21.6799 21.9398 21.5299C22.2298 21.2399 22.2298 20.7599 21.9398 20.4699Z" fill="white"/>
</svg>
