<svg width="25" height="24" viewBox="0 0 25 24" fill="none" xmlns="http://www.w3.org/2000/svg">
<path d="M21.3904 5.17909V16.4791C21.3904 18.4591 19.7804 20.0691 17.8004 20.0691C16.849 20.0665 15.9374 19.6874 15.2648 19.0147C14.5921 18.342 14.213 17.4304 14.2104 16.4791C14.2104 14.5091 15.8304 12.8991 17.8004 12.8991C18.6404 12.8991 19.3904 13.1891 20.0004 13.6691V7.71909L10.7904 10.3391V18.4091C10.7877 19.3604 10.4086 20.272 9.73595 20.9447C9.06327 21.6174 8.15167 21.9965 7.20035 21.9991C5.22035 21.9991 3.61035 20.3891 3.61035 18.4091C3.61035 16.4391 5.22035 14.8291 7.20035 14.8291C8.03035 14.8291 8.78035 15.1191 9.39035 15.5891V6.74909C9.39035 5.27909 10.2804 4.13909 11.6904 3.75909L17.4704 2.17909C18.6404 1.85909 19.6304 1.96909 20.3304 2.50909C21.0403 3.03909 21.3904 3.93909 21.3904 5.17909Z" fill="white"/>
</svg>
