<svg width="25" height="24" viewBox="0 0 25 24" fill="none" xmlns="http://www.w3.org/2000/svg">
<path fill-rule="evenodd" clip-rule="evenodd" d="M18.5 8C18.5016 9.3166 18.0695 10.5971 17.2706 11.6436C16.4717 12.6901 15.3504 13.4444 14.08 13.79C13.58 13.93 13.05 14 12.5 14C11.95 14 11.42 13.93 10.92 13.79C9.64956 13.4444 8.52828 12.6901 7.72938 11.6436C6.93048 10.5971 6.49844 9.3166 6.5 8C6.5 4.69 9.19 2 12.5 2C15.81 2 18.5 4.69 18.5 8ZM14.5 15.9998C14.5 17.7698 13.73 19.3698 12.5 20.4598C11.4053 21.4539 9.97871 22.0031 8.5 21.9998C5.19 21.9998 2.5 19.3098 2.5 15.9998C2.5006 15.0372 2.73312 14.089 3.17787 13.2354C3.62261 12.3817 4.2665 11.6478 5.055 11.0958C5.304 10.9218 5.639 11.0408 5.773 11.3128C6.242 12.2643 6.90768 13.1054 7.726 13.7805C8.54433 14.4556 9.49666 14.9492 10.52 15.2288C11.15 15.4088 11.81 15.4988 12.5 15.4988C12.987 15.4988 13.454 15.4528 13.907 15.3678C14.196 15.3138 14.483 15.4978 14.495 15.7918C14.499 15.8618 14.5 15.9308 14.5 15.9988V15.9998ZM21.8111 18.7846C22.2622 17.9257 22.4984 16.9703 22.4997 16.0002V15.9992C22.4985 15.0372 22.2657 14.0896 21.821 13.2365C21.3763 12.3834 20.7327 11.65 19.9447 11.0982C19.6967 10.9232 19.3607 11.0432 19.2267 11.3152C18.5544 12.6809 17.4798 13.8078 16.1477 14.5442C16.0674 14.5876 16.0025 14.6546 15.9617 14.7362C15.9209 14.8178 15.9062 14.91 15.9197 15.0002C15.9697 15.3202 15.9997 15.6602 15.9997 16.0002C16.0031 17.7689 15.3735 19.4804 14.2247 20.8252C14.0027 21.0842 14.0617 21.4922 14.3807 21.6132C15.2887 21.9547 16.266 22.0712 17.2289 21.9525C18.1917 21.8339 19.1115 21.4838 19.9095 20.9321C20.7076 20.3804 21.36 19.6436 21.8111 18.7846Z" fill="white"/>
</svg>
