<svg width="25" height="24" viewBox="0 0 25 24" fill="none" xmlns="http://www.w3.org/2000/svg">
<path d="M12.5 2C7 2 2.5 6.58 2.5 12.18V20.07C2.5 21.33 3.25 21.67 4.17 20.83L5.17 19.92C5.54 19.58 6.14 19.58 6.51 19.92L8.51 21.75C8.88 22.09 9.48 22.09 9.85 21.75L11.85 19.92C12.22 19.58 12.82 19.58 13.19 19.92L15.19 21.75C15.56 22.09 16.16 22.09 16.53 21.75L18.53 19.92C18.9 19.58 19.5 19.58 19.87 19.92L20.87 20.83C21.79 21.67 22.54 21.33 22.54 20.07V12.18C22.5 6.58 18 2 12.5 2ZM12.5 6.62C13.81 6.62 14.88 7.69 14.88 9C14.88 10.31 13.81 11.38 12.5 11.38C11.19 11.38 10.12 10.31 10.12 9C10.12 7.69 11.19 6.62 12.5 6.62ZM16.95 14.6C15.6643 15.5577 14.1032 16.0734 12.5 16.07C10.93 16.07 9.36 15.58 8.05 14.6C7.89087 14.4807 7.78567 14.303 7.75754 14.1061C7.72941 13.9092 7.78065 13.7091 7.9 13.55C8.01935 13.3909 8.19702 13.2857 8.39393 13.2575C8.59085 13.2294 8.79087 13.2807 8.95 13.4C9.97566 14.1645 11.2207 14.5775 12.5 14.5775C13.7793 14.5775 15.0243 14.1645 16.05 13.4C16.2091 13.2807 16.4092 13.2294 16.6061 13.2575C16.803 13.2857 16.9807 13.3909 17.1 13.55C17.2193 13.7091 17.2706 13.9092 17.2425 14.1061C17.2143 14.303 17.1091 14.4807 16.95 14.6Z" fill="white"/>
</svg>
