<svg width="25" height="24" viewBox="0 0 25 24" fill="none" xmlns="http://www.w3.org/2000/svg">
<path fill-rule="evenodd" clip-rule="evenodd" d="M5.40901 6.90901C5.83097 6.48705 6.40326 6.25 7 6.25C7.59674 6.25 8.16903 6.48705 8.59099 6.90901C9.01295 7.33097 9.25 7.90326 9.25 8.5V11.75H4.75V8.5C4.75 7.90326 4.98705 7.33097 5.40901 6.90901ZM4.75 14.25V19C4.75 19.6904 4.19036 20.25 3.5 20.25C2.80964 20.25 2.25 19.6904 2.25 19V8.5C2.25 7.24022 2.75045 6.03204 3.64124 5.14124C4.53204 4.25045 5.74022 3.75 7 3.75C8.25978 3.75 9.46796 4.25045 10.3588 5.14124C11.2496 6.03204 11.75 7.24022 11.75 8.5V19C11.75 19.6904 11.1904 20.25 10.5 20.25C9.80964 20.25 9.25 19.6904 9.25 19V14.25H4.75ZM21.5 11C22.0523 11 22.5 11.4477 22.5 12V15.5V19C22.5 19.5523 22.0523 20 21.5 20C21.0251 20 20.6275 19.669 20.5254 19.2251C19.8054 19.7142 18.9361 20 18 20C15.5147 20 13.5 17.9853 13.5 15.5C13.5 13.0147 15.5147 11 18 11C18.9361 11 19.8054 11.2858 20.5254 11.7749C20.6275 11.331 21.0251 11 21.5 11ZM20.5 15.5C20.5 14.1193 19.3807 13 18 13C16.6193 13 15.5 14.1193 15.5 15.5C15.5 16.8807 16.6193 18 18 18C19.3807 18 20.5 16.8807 20.5 15.5Z" fill="white"/>
</svg>
