<svg width="25" height="24" viewBox="0 0 25 24" fill="none" xmlns="http://www.w3.org/2000/svg">
<path d="M10.0699 12.9142H13.1599V20.1142C13.1599 21.1742 14.4799 21.6742 15.1799 20.8742L22.7499 12.2742C23.4099 11.5242 22.8799 10.3542 21.8799 10.3542H18.7899V3.15425C18.7899 2.09425 17.4699 1.59425 16.7699 2.39425L9.19994 10.9942C8.54994 11.7442 9.07994 12.9142 10.0699 12.9142Z" fill="white"/>
<path d="M9.25 4.3833H2.25C1.84 4.3833 1.5 4.0433 1.5 3.6333C1.5 3.2233 1.84 2.8833 2.25 2.8833H9.25C9.66 2.8833 10 3.2233 10 3.6333C10 4.0433 9.66 4.3833 9.25 4.3833Z" fill="white"/>
<path d="M8.25 20.3833H2.25C1.84 20.3833 1.5 20.0433 1.5 19.6333C1.5 19.2233 1.84 18.8833 2.25 18.8833H8.25C8.66 18.8833 9 19.2233 9 19.6333C9 20.0433 8.66 20.3833 8.25 20.3833Z" fill="white"/>
<path d="M5.25 12.3833H2.25C1.84 12.3833 1.5 12.0433 1.5 11.6333C1.5 11.2233 1.84 10.8833 2.25 10.8833H5.25C5.66 10.8833 6 11.2233 6 11.6333C6 12.0433 5.66 12.3833 5.25 12.3833Z" fill="white"/>
</svg>
