<svg width="24" height="24" viewBox="0 0 24 24" fill="none" xmlns="http://www.w3.org/2000/svg">
<path d="M16.2402 9.52023L20.9502 14.2302C21.2302 14.5102 21.7202 14.3602 21.8002 13.9702C21.9302 13.3302 22.0002 12.6702 22.0002 12.0002C22.0002 9.71023 21.2202 7.60023 19.9302 5.92023C19.7502 5.68023 19.3902 5.67023 19.1802 5.88023L16.2402 8.82023C16.0502 9.01023 16.0502 9.33023 16.2402 9.52023Z" fill="white"/>
<path d="M14.4801 10.5802L12.7101 12.3502C12.5101 12.5502 12.5101 12.8602 12.7101 13.0602L18.5301 18.8802C18.7301 19.0802 19.0501 19.0802 19.2401 18.8802C19.8601 18.2302 20.3901 17.5002 20.8201 16.7102C20.9201 16.5202 20.8801 16.2702 20.7301 16.1202L15.1901 10.5802C15.0945 10.4886 14.9674 10.4375 14.8351 10.4375C14.7028 10.4375 14.5756 10.4886 14.4801 10.5802Z" fill="white"/>
<path d="M10.9403 14.1201L9.18027 15.8801C8.98027 16.0801 8.98027 16.3901 9.18027 16.5901L14.1003 21.5201C14.1629 21.5835 14.2414 21.6289 14.3276 21.6518C14.4137 21.6746 14.5044 21.6741 14.5903 21.6501C15.5203 21.4001 16.4003 21.0201 17.2003 20.5201C17.4703 20.3501 17.5103 19.9701 17.2803 19.7401L11.6503 14.1101C11.5524 14.0221 11.4249 13.9743 11.2933 13.9761C11.1617 13.978 11.0356 14.0294 10.9403 14.1201Z" fill="white"/>
<path d="M18.0802 4.06999C16.0031 2.46432 13.3753 1.74536 10.7702 2.06999C6.26016 2.60999 2.61016 6.26999 2.07016 10.77C1.74016 13.53 2.54016 16.09 4.07016 18.08C4.25016 18.32 4.61016 18.33 4.82016 18.12L18.1202 4.81999C18.3302 4.60999 18.3202 4.24999 18.0802 4.06999Z" fill="white"/>
<path d="M7.40023 17.67L5.88023 19.19C5.67023 19.4 5.68023 19.76 5.92023 19.94C7.47282 21.1446 9.34957 21.8584 11.3102 21.99C11.7402 22.02 11.9502 21.51 11.6402 21.2L8.11023 17.67C7.92023 17.47 7.60023 17.47 7.40023 17.67Z" fill="white"/>
</svg>
