<svg width="24" height="24" viewBox="0 0 24 24" fill="none" xmlns="http://www.w3.org/2000/svg">
<path d="M12 21.9985C10.6867 22.0004 9.38589 21.7427 8.17241 21.2403C6.95893 20.738 5.85667 20.0008 4.92898 19.0711C1.02575 15.1678 1.02575 8.83216 4.92898 4.92893C6.8806 2.97731 9.44032 2.00151 12 2.00151" stroke="white" stroke-width="2" stroke-linecap="round" stroke-linejoin="round"/>
<path d="M12 2.00151C13.3133 1.99962 14.6141 2.25727 15.8276 2.75965C17.0411 3.26203 18.1433 3.99925 19.071 4.92893C22.9743 8.83216 22.9743 15.1678 19.071 19.0711C17.1194 21.0227 14.5597 21.9985 12 21.9985" stroke="white" stroke-width="2" stroke-linecap="round" stroke-linejoin="round"/>
<path d="M12 2.00151V21.9985" stroke="white" stroke-width="2" stroke-linecap="round" stroke-linejoin="round"/>
<path d="M12 17.9961L19.9974 18.0032" stroke="white" stroke-width="2" stroke-linecap="round" stroke-linejoin="round"/>
<path d="M12 13.0039L21.2985 12.9968" stroke="white" stroke-width="2" stroke-miterlimit="10" stroke-linecap="round" stroke-linejoin="round"/>
<path d="M12 7.99756L20.9025 8.00463" stroke="white" stroke-width="2" stroke-linecap="round" stroke-linejoin="round"/>
</svg>
